# This file is generated using .PNG to .OBJ converter
# Source: https://github.com/jonivesto/java-png-to-obj
# Website: https://www.jonivesto.com

# Materials
mtllib tools.mtl

# Vertices
v 3.5 16.5 0.0
v 4.5 16.5 0.0
v 3.5 17.5 0.0
v 4.5 17.5 0.0
v 3.5 18.5 0.0
v 4.5 18.5 0.0
v 4.5 15.5 0.0
v 5.5 15.5 0.0
v 5.5 16.5 0.0
v 5.5 17.5 0.0
v 5.5 18.5 0.0
v 5.5 14.5 0.0
v 6.5 14.5 0.0
v 6.5 15.5 0.0
v 6.5 16.5 0.0
v 6.5 17.5 0.0
v 6.5 6.5 0.0
v 7.5 6.5 0.0
v 6.5 7.5 0.0
v 7.5 7.5 0.0
v 6.5 13.5 0.0
v 7.5 13.5 0.0
v 7.5 14.5 0.0
v 7.5 15.5 0.0
v 7.5 16.5 0.0
v 7.5 5.5 0.0
v 8.5 5.5 0.0
v 8.5 6.5 0.0
v 8.5 7.5 0.0
v 7.5 8.5 0.0
v 8.5 8.5 0.0
v 7.5 12.5 0.0
v 8.5 12.5 0.0
v 8.5 13.5 0.0
v 8.5 14.5 0.0
v 8.5 15.5 0.0
v 9.5 5.5 0.0
v 9.5 6.5 0.0
v 9.5 7.5 0.0
v 9.5 8.5 0.0
v 8.5 11.5 0.0
v 9.5 11.5 0.0
v 9.5 12.5 0.0
v 9.5 13.5 0.0
v 9.5 14.5 0.0
v 10.5 5.5 0.0
v 10.5 6.5 0.0
v 10.5 7.5 0.0
v 10.5 8.5 0.0
v 9.5 10.5 0.0
v 10.5 10.5 0.0
v 10.5 11.5 0.0
v 10.5 12.5 0.0
v 10.5 13.5 0.0
v 11.5 5.5 0.0
v 11.5 6.5 0.0
v 11.5 7.5 0.0
v 11.5 8.5 0.0
v 10.5 9.5 0.0
v 11.5 9.5 0.0
v 11.5 10.5 0.0
v 11.5 11.5 0.0
v 11.5 12.5 0.0
v 12.5 5.5 0.0
v 12.5 6.5 0.0
v 12.5 7.5 0.0
v 12.5 8.5 0.0
v 12.5 9.5 0.0
v 12.5 10.5 0.0
v 12.5 11.5 0.0
v 13.5 6.5 0.0
v 13.5 7.5 0.0
v 13.5 8.5 0.0
v 13.5 9.5 0.0
v 13.5 10.5 0.0
v 14.5 6.5 0.0
v 14.5 7.5 0.0
v 14.5 8.5 0.0
v 14.5 9.5 0.0
v 14.5 10.5 0.0
v 13.5 11.5 0.0
v 14.5 11.5 0.0
v 13.5 12.5 0.0
v 14.5 12.5 0.0
v 13.5 13.5 0.0
v 14.5 13.5 0.0
v 13.5 14.5 0.0
v 14.5 14.5 0.0
v 15.5 6.5 0.0
v 15.5 7.5 0.0
v 15.5 8.5 0.0
v 15.5 9.5 0.0
v 15.5 10.5 0.0
v 15.5 11.5 0.0
v 15.5 12.5 0.0
v 15.5 13.5 0.0
v 15.5 14.5 0.0
v 14.5 15.5 0.0
v 15.5 15.5 0.0
v 16.5 9.5 0.0
v 16.5 10.5 0.0
v 16.5 11.5 0.0
v 16.5 12.5 0.0
v 16.5 13.5 0.0
v 16.5 14.5 0.0
v 20.5 16.5 0.0
v 21.5 16.5 0.0
v 20.5 17.5 0.0
v 21.5 17.5 0.0
v 20.5 18.5 0.0
v 21.5 18.5 0.0
v 21.5 15.5 0.0
v 22.5 15.5 0.0
v 22.5 16.5 0.0
v 22.5 17.5 0.0
v 22.5 18.5 0.0
v 22.5 14.5 0.0
v 23.5 14.5 0.0
v 23.5 15.5 0.0
v 23.5 16.5 0.0
v 23.5 17.5 0.0
v 23.5 13.5 0.0
v 24.5 13.5 0.0
v 24.5 14.5 0.0
v 24.5 15.5 0.0
v 24.5 16.5 0.0
v 24.5 7.5 0.0
v 25.5 7.5 0.0
v 24.5 8.5 0.0
v 25.5 8.5 0.0
v 24.5 9.5 0.0
v 25.5 9.5 0.0
v 24.5 12.5 0.0
v 25.5 12.5 0.0
v 25.5 13.5 0.0
v 25.5 14.5 0.0
v 25.5 15.5 0.0
v 25.5 6.5 0.0
v 26.5 6.5 0.0
v 26.5 7.5 0.0
v 26.5 8.5 0.0
v 26.5 9.5 0.0
v 25.5 10.5 0.0
v 26.5 10.5 0.0
v 25.5 11.5 0.0
v 26.5 11.5 0.0
v 26.5 12.5 0.0
v 26.5 13.5 0.0
v 26.5 14.5 0.0
v 26.5 5.5 0.0
v 27.5 5.5 0.0
v 27.5 6.5 0.0
v 27.5 7.5 0.0
v 27.5 8.5 0.0
v 27.5 9.5 0.0
v 27.5 10.5 0.0
v 27.5 11.5 0.0
v 27.5 12.5 0.0
v 27.5 13.5 0.0
v 27.5 4.5 0.0
v 28.5 4.5 0.0
v 28.5 5.5 0.0
v 28.5 6.5 0.0
v 28.5 7.5 0.0
v 28.5 8.5 0.0
v 28.5 9.5 0.0
v 28.5 10.5 0.0
v 28.5 11.5 0.0
v 28.5 12.5 0.0
v 29.5 4.5 0.0
v 29.5 5.5 0.0
v 29.5 6.5 0.0
v 29.5 7.5 0.0
v 29.5 8.5 0.0
v 29.5 9.5 0.0
v 29.5 10.5 0.0
v 29.5 11.5 0.0
v 30.5 5.5 0.0
v 30.5 6.5 0.0
v 30.5 7.5 0.0
v 30.5 8.5 0.0
v 30.5 9.5 0.0
v 30.5 10.5 0.0
v 30.5 11.5 0.0
v 29.5 12.5 0.0
v 30.5 12.5 0.0
v 31.5 7.5 0.0
v 31.5 8.5 0.0
v 31.5 9.5 0.0
v 31.5 10.5 0.0
v 31.5 11.5 0.0
v 31.5 12.5 0.0
v 32.5 9.5 0.0
v 32.5 10.5 0.0
v 32.5 11.5 0.0
v 35.5 15.5 0.0
v 36.5 15.5 0.0
v 35.5 16.5 0.0
v 36.5 16.5 0.0
v 35.5 17.5 0.0
v 36.5 17.5 0.0
v 37.5 15.5 0.0
v 37.5 16.5 0.0
v 37.5 17.5 0.0
v 36.5 18.5 0.0
v 37.5 18.5 0.0
v 37.5 14.5 0.0
v 38.5 14.5 0.0
v 38.5 15.5 0.0
v 38.5 16.5 0.0
v 38.5 17.5 0.0
v 38.5 18.5 0.0
v 38.5 13.5 0.0
v 39.5 13.5 0.0
v 39.5 14.5 0.0
v 39.5 15.5 0.0
v 39.5 16.5 0.0
v 39.5 12.5 0.0
v 40.5 12.5 0.0
v 40.5 13.5 0.0
v 40.5 14.5 0.0
v 40.5 15.5 0.0
v 40.5 11.5 0.0
v 41.5 11.5 0.0
v 41.5 12.5 0.0
v 41.5 13.5 0.0
v 41.5 14.5 0.0
v 41.5 8.5 0.0
v 42.5 8.5 0.0
v 41.5 9.5 0.0
v 42.5 9.5 0.0
v 41.5 10.5 0.0
v 42.5 10.5 0.0
v 42.5 11.5 0.0
v 42.5 12.5 0.0
v 42.5 13.5 0.0
v 42.5 7.5 0.0
v 43.5 7.5 0.0
v 43.5 8.5 0.0
v 43.5 9.5 0.0
v 43.5 10.5 0.0
v 43.5 11.5 0.0
v 43.5 12.5 0.0
v 43.5 6.5 0.0
v 44.5 6.5 0.0
v 44.5 7.5 0.0
v 44.5 8.5 0.0
v 44.5 9.5 0.0
v 44.5 10.5 0.0
v 44.5 11.5 0.0
v 44.5 5.5 0.0
v 45.5 5.5 0.0
v 45.5 6.5 0.0
v 45.5 7.5 0.0
v 45.5 8.5 0.0
v 45.5 9.5 0.0
v 45.5 10.5 0.0
v 45.5 11.5 0.0
v 44.5 12.5 0.0
v 45.5 12.5 0.0
v 46.5 5.5 0.0
v 46.5 6.5 0.0
v 46.5 7.5 0.0
v 46.5 8.5 0.0
v 46.5 9.5 0.0
v 46.5 10.5 0.0
v 46.5 11.5 0.0
v 47.5 5.5 0.0
v 47.5 6.5 0.0
v 47.5 7.5 0.0
v 47.5 8.5 0.0
v 47.5 9.5 0.0
v 47.5 10.5 0.0
v 48.5 6.5 0.0
v 48.5 7.5 0.0
v 48.5 8.5 0.0
v 48.5 9.5 0.0
v 50.5 16.5 0.0
v 51.5 16.5 0.0
v 50.5 17.5 0.0
v 51.5 17.5 0.0
v 50.5 18.5 0.0
v 51.5 18.5 0.0
v 51.5 15.5 0.0
v 52.5 15.5 0.0
v 52.5 16.5 0.0
v 52.5 17.5 0.0
v 52.5 18.5 0.0
v 52.5 14.5 0.0
v 53.5 14.5 0.0
v 53.5 15.5 0.0
v 53.5 16.5 0.0
v 53.5 17.5 0.0
v 53.5 13.5 0.0
v 54.5 13.5 0.0
v 54.5 14.5 0.0
v 54.5 15.5 0.0
v 54.5 16.5 0.0
v 54.5 5.5 0.0
v 55.5 5.5 0.0
v 54.5 6.5 0.0
v 55.5 6.5 0.0
v 54.5 12.5 0.0
v 55.5 12.5 0.0
v 55.5 13.5 0.0
v 55.5 14.5 0.0
v 55.5 15.5 0.0
v 55.5 4.5 0.0
v 56.5 4.5 0.0
v 56.5 5.5 0.0
v 56.5 6.5 0.0
v 55.5 7.5 0.0
v 56.5 7.5 0.0
v 55.5 11.5 0.0
v 56.5 11.5 0.0
v 56.5 12.5 0.0
v 56.5 13.5 0.0
v 56.5 14.5 0.0
v 57.5 4.5 0.0
v 57.5 5.5 0.0
v 57.5 6.5 0.0
v 57.5 7.5 0.0
v 56.5 10.5 0.0
v 57.5 10.5 0.0
v 57.5 11.5 0.0
v 57.5 12.5 0.0
v 57.5 13.5 0.0
v 58.5 4.5 0.0
v 58.5 5.5 0.0
v 58.5 6.5 0.0
v 58.5 7.5 0.0
v 57.5 8.5 0.0
v 58.5 8.5 0.0
v 57.5 9.5 0.0
v 58.5 9.5 0.0
v 58.5 10.5 0.0
v 58.5 11.5 0.0
v 58.5 12.5 0.0
v 59.5 5.5 0.0
v 59.5 6.5 0.0
v 59.5 7.5 0.0
v 59.5 8.5 0.0
v 59.5 9.5 0.0
v 59.5 10.5 0.0
v 59.5 11.5 0.0
v 60.5 6.5 0.0
v 60.5 7.5 0.0
v 60.5 8.5 0.0
v 60.5 9.5 0.0
v 60.5 10.5 0.0
v 61.5 6.5 0.0
v 61.5 7.5 0.0
v 61.5 8.5 0.0
v 61.5 9.5 0.0
v 61.5 10.5 0.0
v 62.5 6.5 0.0
v 62.5 7.5 0.0
v 62.5 8.5 0.0
v 62.5 9.5 0.0
v 67.5 15.5 0.0
v 68.5 15.5 0.0
v 67.5 16.5 0.0
v 68.5 16.5 0.0
v 67.5 17.5 0.0
v 68.5 17.5 0.0
v 67.5 18.5 0.0
v 68.5 18.5 0.0
v 69.5 15.5 0.0
v 69.5 16.5 0.0
v 69.5 17.5 0.0
v 69.5 18.5 0.0
v 69.5 8.5 0.0
v 70.5 8.5 0.0
v 69.5 9.5 0.0
v 70.5 9.5 0.0
v 69.5 10.5 0.0
v 70.5 10.5 0.0
v 69.5 14.5 0.0
v 70.5 14.5 0.0
v 70.5 15.5 0.0
v 70.5 16.5 0.0
v 70.5 17.5 0.0
v 70.5 18.5 0.0
v 71.5 8.5 0.0
v 71.5 9.5 0.0
v 71.5 10.5 0.0
v 70.5 11.5 0.0
v 71.5 11.5 0.0
v 70.5 12.5 0.0
v 71.5 12.5 0.0
v 70.5 13.5 0.0
v 71.5 13.5 0.0
v 71.5 14.5 0.0
v 71.5 15.5 0.0
v 71.5 16.5 0.0
v 72.5 9.5 0.0
v 72.5 10.5 0.0
v 72.5 11.5 0.0
v 72.5 12.5 0.0
v 72.5 13.5 0.0
v 72.5 14.5 0.0
v 72.5 15.5 0.0
v 73.5 10.5 0.0
v 73.5 11.5 0.0
v 73.5 12.5 0.0
v 73.5 13.5 0.0
v 73.5 14.5 0.0
v 73.5 9.5 0.0
v 74.5 9.5 0.0
v 74.5 10.5 0.0
v 74.5 11.5 0.0
v 74.5 12.5 0.0
v 74.5 13.5 0.0
v 74.5 14.5 0.0
v 73.5 15.5 0.0
v 74.5 15.5 0.0
v 74.5 8.5 0.0
v 75.5 8.5 0.0
v 75.5 9.5 0.0
v 75.5 10.5 0.0
v 75.5 11.5 0.0
v 75.5 12.5 0.0
v 75.5 13.5 0.0
v 75.5 14.5 0.0
v 75.5 15.5 0.0
v 75.5 7.5 0.0
v 76.5 7.5 0.0
v 76.5 8.5 0.0
v 76.5 9.5 0.0
v 76.5 10.5 0.0
v 76.5 11.5 0.0
v 76.5 12.5 0.0
v 76.5 13.5 0.0
v 76.5 14.5 0.0
v 76.5 15.5 0.0
v 75.5 16.5 0.0
v 76.5 16.5 0.0
v 76.5 6.5 0.0
v 77.5 6.5 0.0
v 77.5 7.5 0.0
v 77.5 8.5 0.0
v 77.5 9.5 0.0
v 77.5 10.5 0.0
v 77.5 11.5 0.0
v 77.5 14.5 0.0
v 77.5 15.5 0.0
v 77.5 16.5 0.0
v 77.5 5.5 0.0
v 78.5 5.5 0.0
v 78.5 6.5 0.0
v 78.5 7.5 0.0
v 78.5 8.5 0.0
v 78.5 9.5 0.0
v 78.5 10.5 0.0
v 78.5 4.5 0.0
v 79.5 4.5 0.0
v 79.5 5.5 0.0
v 79.5 6.5 0.0
v 79.5 7.5 0.0
v 79.5 8.5 0.0
v 79.5 9.5 0.0
v 79.5 3.5 0.0
v 80.5 3.5 0.0
v 80.5 4.5 0.0
v 80.5 5.5 0.0
v 80.5 6.5 0.0
v 80.5 7.5 0.0
v 80.5 8.5 0.0
v 80.5 2.5 0.0
v 81.5 2.5 0.0
v 81.5 3.5 0.0
v 81.5 4.5 0.0
v 81.5 5.5 0.0
v 81.5 6.5 0.0
v 81.5 7.5 0.0
v 82.5 2.5 0.0
v 82.5 3.5 0.0
v 82.5 4.5 0.0
v 82.5 5.5 0.0
v 82.5 6.5 0.0
v 83.5 2.5 0.0
v 83.5 3.5 0.0
v 83.5 4.5 0.0
v 83.5 5.5 0.0
v 89.5 13.5 0.0
v 90.5 13.5 0.0
v 89.5 14.5 0.0
v 90.5 14.5 0.0
v 89.5 15.5 0.0
v 90.5 15.5 0.0
v 89.5 16.5 0.0
v 90.5 16.5 0.0
v 89.5 17.5 0.0
v 90.5 17.5 0.0
v 90.5 10.5 0.0
v 91.5 10.5 0.0
v 90.5 11.5 0.0
v 91.5 11.5 0.0
v 90.5 12.5 0.0
v 91.5 12.5 0.0
v 91.5 13.5 0.0
v 91.5 14.5 0.0
v 91.5 15.5 0.0
v 91.5 16.5 0.0
v 91.5 17.5 0.0
v 90.5 18.5 0.0
v 91.5 18.5 0.0
v 91.5 8.5 0.0
v 92.5 8.5 0.0
v 91.5 9.5 0.0
v 92.5 9.5 0.0
v 92.5 10.5 0.0
v 92.5 11.5 0.0
v 92.5 12.5 0.0
v 92.5 13.5 0.0
v 92.5 14.5 0.0
v 92.5 15.5 0.0
v 92.5 16.5 0.0
v 92.5 17.5 0.0
v 92.5 7.5 0.0
v 93.5 7.5 0.0
v 93.5 8.5 0.0
v 93.5 9.5 0.0
v 93.5 10.5 0.0
v 93.5 11.5 0.0
v 93.5 12.5 0.0
v 93.5 13.5 0.0
v 93.5 15.5 0.0
v 93.5 16.5 0.0
v 93.5 6.5 0.0
v 94.5 6.5 0.0
v 94.5 7.5 0.0
v 94.5 8.5 0.0
v 94.5 9.5 0.0
v 94.5 10.5 0.0
v 93.5 14.5 0.0
v 94.5 14.5 0.0
v 94.5 15.5 0.0
v 94.5 5.5 0.0
v 95.5 5.5 0.0
v 95.5 6.5 0.0
v 95.5 7.5 0.0
v 95.5 8.5 0.0
v 95.5 9.5 0.0
v 94.5 13.5 0.0
v 95.5 13.5 0.0
v 95.5 14.5 0.0
v 96.5 5.5 0.0
v 96.5 6.5 0.0
v 96.5 7.5 0.0
v 96.5 8.5 0.0
v 95.5 12.5 0.0
v 96.5 12.5 0.0
v 96.5 13.5 0.0
v 96.5 4.5 0.0
v 97.5 4.5 0.0
v 97.5 5.5 0.0
v 97.5 6.5 0.0
v 97.5 7.5 0.0
v 96.5 11.5 0.0
v 97.5 11.5 0.0
v 97.5 12.5 0.0
v 98.5 4.5 0.0
v 98.5 5.5 0.0
v 98.5 6.5 0.0
v 98.5 7.5 0.0
v 97.5 10.5 0.0
v 98.5 10.5 0.0
v 98.5 11.5 0.0
v 99.5 4.5 0.0
v 99.5 5.5 0.0
v 99.5 6.5 0.0
v 99.5 7.5 0.0
v 98.5 9.5 0.0
v 99.5 9.5 0.0
v 99.5 10.5 0.0
v 99.5 3.5 0.0
v 100.5 3.5 0.0
v 100.5 4.5 0.0
v 100.5 5.5 0.0
v 100.5 6.5 0.0
v 99.5 8.5 0.0
v 100.5 8.5 0.0
v 100.5 9.5 0.0
v 101.5 3.5 0.0
v 101.5 4.5 0.0
v 101.5 5.5 0.0
v 101.5 6.5 0.0
v 100.5 7.5 0.0
v 101.5 7.5 0.0
v 101.5 8.5 0.0
v 102.5 3.5 0.0
v 102.5 4.5 0.0
v 102.5 5.5 0.0
v 102.5 6.5 0.0
v 102.5 7.5 0.0
v 103.5 3.5 0.0
v 103.5 4.5 0.0
v 103.5 5.5 0.0
v 103.5 6.5 0.0
v 104.5 4.5 0.0
v 104.5 5.5 0.0
v 108.5 15.5 0.0
v 109.5 15.5 0.0
v 108.5 16.5 0.0
v 109.5 16.5 0.0
v 108.5 17.5 0.0
v 109.5 17.5 0.0
v 109.5 14.5 0.0
v 110.5 14.5 0.0
v 110.5 15.5 0.0
v 110.5 16.5 0.0
v 110.5 17.5 0.0
v 109.5 18.5 0.0
v 110.5 18.5 0.0
v 111.5 14.5 0.0
v 111.5 15.5 0.0
v 111.5 16.5 0.0
v 111.5 17.5 0.0
v 111.5 13.5 0.0
v 112.5 13.5 0.0
v 112.5 14.5 0.0
v 112.5 15.5 0.0
v 112.5 16.5 0.0
v 112.5 12.5 0.0
v 113.5 12.5 0.0
v 113.5 13.5 0.0
v 113.5 14.5 0.0
v 113.5 11.5 0.0
v 114.5 11.5 0.0
v 114.5 12.5 0.0
v 114.5 13.5 0.0
v 114.5 10.5 0.0
v 115.5 10.5 0.0
v 115.5 11.5 0.0
v 115.5 12.5 0.0
v 115.5 9.5 0.0
v 116.5 9.5 0.0
v 116.5 10.5 0.0
v 116.5 11.5 0.0
v 116.5 6.5 0.0
v 117.5 6.5 0.0
v 116.5 7.5 0.0
v 117.5 7.5 0.0
v 116.5 8.5 0.0
v 117.5 8.5 0.0
v 117.5 9.5 0.0
v 117.5 10.5 0.0
v 118.5 6.5 0.0
v 118.5 7.5 0.0
v 118.5 8.5 0.0
v 118.5 9.5 0.0
v 118.5 5.5 0.0
v 119.5 5.5 0.0
v 119.5 6.5 0.0
v 119.5 7.5 0.0
v 119.5 8.5 0.0
v 119.5 9.5 0.0
v 118.5 10.5 0.0
v 119.5 10.5 0.0
v 120.5 5.5 0.0
v 120.5 6.5 0.0
v 120.5 7.5 0.0
v 120.5 8.5 0.0
v 120.5 9.5 0.0
v 121.5 5.5 0.0
v 121.5 6.5 0.0
v 121.5 7.5 0.0

# Faces
usemtl mat_5e4520
f 2 1 3 4
usemtl mat_7d6027
f 4 3 5 6
usemtl mat_5e4520
f 8 7 2 9
usemtl mat_7d6027
f 9 2 4 10
usemtl mat_422f12
f 10 4 6 11
usemtl mat_5e4520
f 13 12 8 14
usemtl mat_7d6027
f 14 8 9 15
usemtl mat_422f12
f 15 9 10 16
usemtl mat_1d4f4b
f 18 17 19 20
usemtl mat_5e4520
f 22 21 13 23
usemtl mat_7d6027
f 23 13 14 24
usemtl mat_422f12
f 24 14 15 25
usemtl mat_1d4f4b
f 27 26 18 28
usemtl mat_43b5ab
f 28 18 20 29
usemtl mat_1d4f4b
f 29 20 30 31
usemtl mat_5e4520
f 33 32 22 34
usemtl mat_7d6027
f 34 22 23 35
usemtl mat_422f12
f 35 23 24 36
usemtl mat_1d4f4b
f 37 27 28 38
usemtl mat_3e9c94
f 38 28 29 39
usemtl mat_1d4f4b
f 39 29 31 40
usemtl mat_5e4520
f 42 41 33 43
usemtl mat_7d6027
f 43 33 34 44
usemtl mat_422f12
f 44 34 35 45
usemtl mat_1d4f4b
f 46 37 38 47
usemtl mat_338780
f 47 38 39 48
usemtl mat_1d4f4b
f 48 39 40 49
usemtl mat_5e4520
f 51 50 42 52
usemtl mat_7d6027
f 52 42 43 53
usemtl mat_422f12
f 53 43 44 54
usemtl mat_1d4f4b
f 55 46 47 56
usemtl mat_338780
f 56 47 48 57
usemtl mat_1d4f4b
f 57 48 49 58
usemtl mat_5e4520
f 60 59 51 61
usemtl mat_7d6027
f 61 51 52 62
usemtl mat_422f12
f 62 52 53 63
usemtl mat_1d4f4b
f 64 55 56 65
usemtl mat_388f88
f 65 56 57 66
usemtl mat_338780
f 66 57 58 67
usemtl mat_5e4520
f 67 58 60 68
usemtl mat_7d6027
f 68 60 61 69
usemtl mat_422f12
f 69 61 62 70
usemtl mat_1d4f4b
f 71 65 66 72
usemtl mat_338780
f 72 66 67 73
usemtl mat_388f88
f 73 67 68 74
usemtl mat_422f12
f 74 68 69 75
usemtl mat_5e4520
f 76 71 72 77
usemtl mat_7d6027
f 77 72 73 78
usemtl mat_338780
f 78 73 74 79
f 79 74 75 80
usemtl mat_1d4f4b
f 80 75 81 82
f 82 81 83 84
f 84 83 85 86
f 86 85 87 88
usemtl mat_7d6027
f 89 76 77 90
usemtl mat_422f12
f 90 77 78 91
usemtl mat_1d4f4b
f 91 78 79 92
usemtl mat_388f88
f 92 79 80 93
usemtl mat_338780
f 93 80 82 94
f 94 82 84 95
usemtl mat_3e9c94
f 95 84 86 96
usemtl mat_43b5ab
f 96 86 88 97
usemtl mat_1d4f4b
f 97 88 98 99
f 100 92 93 101
f 101 93 94 102
f 102 94 95 103
f 103 95 96 104
f 104 96 97 105
usemtl mat_5e4520
f 107 106 108 109
usemtl mat_7d6027
f 109 108 110 111
usemtl mat_5e4520
f 113 112 107 114
usemtl mat_7d6027
f 114 107 109 115
usemtl mat_422f12
f 115 109 111 116
usemtl mat_5e4520
f 118 117 113 119
usemtl mat_7d6027
f 119 113 114 120
usemtl mat_422f12
f 120 114 115 121
usemtl mat_5e4520
f 123 122 118 124
usemtl mat_7d6027
f 124 118 119 125
usemtl mat_422f12
f 125 119 120 126
usemtl mat_1d4f4b
f 128 127 129 130
f 130 129 131 132
usemtl mat_5e4520
f 134 133 123 135
usemtl mat_7d6027
f 135 123 124 136
usemtl mat_422f12
f 136 124 125 137
usemtl mat_1d4f4b
f 139 138 128 140
usemtl mat_3da69d
f 140 128 130 141
f 141 130 132 142
usemtl mat_1d4f4b
f 142 132 143 144
usemtl mat_5e4520
f 146 145 134 147
usemtl mat_7d6027
f 147 134 135 148
usemtl mat_422f12
f 148 135 136 149
usemtl mat_1d4f4b
f 151 150 139 152
usemtl mat_3da69d
f 152 139 140 153
usemtl mat_338780
f 153 140 141 154
usemtl mat_388f88
f 154 141 142 155
usemtl mat_1d4f4b
f 155 142 144 156
usemtl mat_5e4520
f 156 144 146 157
usemtl mat_7d6027
f 157 146 147 158
usemtl mat_422f12
f 158 147 148 159
usemtl mat_1d4f4b
f 161 160 151 162
usemtl mat_3da69d
f 162 151 152 163
usemtl mat_338780
f 163 152 153 164
f 164 153 154 165
f 165 154 155 166
usemtl mat_5e4520
f 166 155 156 167
usemtl mat_7d6027
f 167 156 157 168
usemtl mat_422f12
f 168 157 158 169
usemtl mat_1d4f4b
f 170 161 162 171
usemtl mat_3da69d
f 171 162 163 172
usemtl mat_388f88
f 172 163 164 173
usemtl mat_338780
f 173 164 165 174
usemtl mat_1a6e5d
f 174 165 166 175
usemtl mat_338780
f 175 166 167 176
usemtl mat_422f12
f 176 167 168 177
usemtl mat_1d4f4b
f 178 171 172 179
f 179 172 173 180
usemtl mat_5e4520
f 180 173 174 181
usemtl mat_338780
f 181 174 175 182
usemtl mat_1a6e5d
f 182 175 176 183
usemtl mat_338780
f 183 176 177 184
usemtl mat_1d4f4b
f 184 177 185 186
usemtl mat_7d6027
f 187 180 181 188
usemtl mat_422f12
f 188 181 182 189
usemtl mat_338780
f 189 182 183 190
f 190 183 184 191
usemtl mat_1d4f4b
f 191 184 186 192
f 193 189 190 194
f 194 190 191 195
usemtl mat_422f12
f 197 196 198 199
usemtl mat_665128
f 199 198 200 201
usemtl mat_5e4520
f 202 197 199 203
usemtl mat_7d6027
f 203 199 201 204
usemtl mat_665128
f 204 201 205 206
usemtl mat_5e4520
f 208 207 202 209
usemtl mat_7d6027
f 209 202 203 210
usemtl mat_422f12
f 210 203 204 211
f 211 204 206 212
usemtl mat_5e4520
f 214 213 208 215
usemtl mat_7d6027
f 215 208 209 216
usemtl mat_422f12
f 216 209 210 217
usemtl mat_5e4520
f 219 218 214 220
usemtl mat_7d6027
f 220 214 215 221
usemtl mat_422f12
f 221 215 216 222
usemtl mat_5e4520
f 224 223 219 225
usemtl mat_7d6027
f 225 219 220 226
usemtl mat_422f12
f 226 220 221 227
usemtl mat_1d4f4b
f 229 228 230 231
usemtl mat_5e4520
f 233 232 224 234
usemtl mat_7d6027
f 234 224 225 235
usemtl mat_422f12
f 235 225 226 236
usemtl mat_1d4f4b
f 238 237 229 239
usemtl mat_3da69d
f 239 229 231 240
usemtl mat_5e4520
f 240 231 233 241
usemtl mat_7d6027
f 241 233 234 242
usemtl mat_422f12
f 242 234 235 243
usemtl mat_1d4f4b
f 245 244 238 246
usemtl mat_3da69d
f 246 238 239 247
usemtl mat_388f88
f 247 239 240 248
usemtl mat_338780
f 248 240 241 249
usemtl mat_422f12
f 249 241 242 250
usemtl mat_1d4f4b
f 252 251 245 253
usemtl mat_3da69d
f 253 245 246 254
usemtl mat_388f88
f 254 246 247 255
usemtl mat_338780
f 255 247 248 256
usemtl mat_388f88
f 256 248 249 257
usemtl mat_3da69d
f 257 249 250 258
usemtl mat_1d4f4b
f 258 250 259 260
f 261 252 253 262
usemtl mat_3da69d
f 262 253 254 263
usemtl mat_338780
f 263 254 255 264
usemtl mat_388f88
f 264 255 256 265
usemtl mat_3da69d
f 265 256 257 266
usemtl mat_1d4f4b
f 266 257 258 267
f 268 261 262 269
usemtl mat_338780
f 269 262 263 270
usemtl mat_3da69d
f 270 263 264 271
f 271 264 265 272
usemtl mat_1d4f4b
f 272 265 266 273
f 274 269 270 275
f 275 270 271 276
f 276 271 272 277
usemtl mat_5e4520
f 279 278 280 281
usemtl mat_7d6027
f 281 280 282 283
usemtl mat_5e4520
f 285 284 279 286
usemtl mat_7d6027
f 286 279 281 287
usemtl mat_422f12
f 287 281 283 288
usemtl mat_5e4520
f 290 289 285 291
usemtl mat_7d6027
f 291 285 286 292
usemtl mat_422f12
f 292 286 287 293
usemtl mat_5e4520
f 295 294 290 296
usemtl mat_7d6027
f 296 290 291 297
usemtl mat_422f12
f 297 291 292 298
usemtl mat_1d4f4b
f 300 299 301 302
usemtl mat_5e4520
f 304 303 295 305
usemtl mat_7d6027
f 305 295 296 306
usemtl mat_422f12
f 306 296 297 307
usemtl mat_1d4f4b
f 309 308 300 310
usemtl mat_43b5ab
f 310 300 302 311
usemtl mat_1d4f4b
f 311 302 312 313
usemtl mat_5e4520
f 315 314 304 316
usemtl mat_7d6027
f 316 304 305 317
usemtl mat_422f12
f 317 305 306 318
usemtl mat_1d4f4b
f 319 309 310 320
usemtl mat_338780
f 320 310 311 321
usemtl mat_1d4f4b
f 321 311 313 322
usemtl mat_5e4520
f 324 323 315 325
usemtl mat_7d6027
f 325 315 316 326
usemtl mat_422f12
f 326 316 317 327
usemtl mat_1d4f4b
f 328 319 320 329
usemtl mat_248c77
f 329 320 321 330
usemtl mat_4d9e9a
f 330 321 322 331
usemtl mat_1d4f4b
f 331 322 332 333
usemtl mat_5e4520
f 335 334 324 336
usemtl mat_7d6027
f 336 324 325 337
usemtl mat_422f12
f 337 325 326 338
usemtl mat_1d4f4b
f 339 329 330 340
usemtl mat_338780
f 340 330 331 341
f 341 331 333 342
usemtl mat_5e4520
f 342 333 335 343
usemtl mat_7d6027
f 343 335 336 344
usemtl mat_422f12
f 344 336 337 345
usemtl mat_1d4f4b
f 346 340 341 347
usemtl mat_338780
f 347 341 342 348
f 348 342 343 349
usemtl mat_422f12
f 349 343 344 350
usemtl mat_5e4520
f 351 346 347 352
usemtl mat_7d6027
f 352 347 348 353
usemtl mat_4d9e9a
f 353 348 349 354
usemtl mat_1d4f4b
f 354 349 350 355
usemtl mat_7d6027
f 356 351 352 357
usemtl mat_422f12
f 357 352 353 358
usemtl mat_1d4f4b
f 358 353 354 359
f 361 360 362 363
f 363 362 364 365
f 365 364 366 367
f 368 361 363 369
usemtl mat_3da69d
f 369 363 365 370
usemtl mat_1d4f4b
f 370 365 367 371
f 373 372 374 375
f 375 374 376 377
usemtl mat_5e4520
f 379 378 368 380
usemtl mat_7d6027
f 380 368 369 381
usemtl mat_1d4f4b
f 381 369 370 382
f 382 370 371 383
f 384 373 375 385
usemtl mat_338780
f 385 375 377 386
usemtl mat_1d4f4b
f 386 377 387 388
f 388 387 389 390
usemtl mat_5e4520
f 392 391 379 393
usemtl mat_7d6027
f 393 379 380 394
usemtl mat_422f12
f 394 380 381 395
usemtl mat_1d4f4b
f 396 385 386 397
usemtl mat_388f88
f 397 386 388 398
f 398 388 390 399
usemtl mat_1d4f4b
f 399 390 392 400
usemtl mat_7d6027
f 400 392 393 401
usemtl mat_422f12
f 401 393 394 402
usemtl mat_1d4f4b
f 403 397 398 404
f 404 398 399 405
usemtl mat_388f88
f 405 399 400 406
usemtl mat_1d4f4b
f 406 400 401 407
f 409 408 403 410
usemtl mat_43b5ab
f 410 403 404 411
usemtl mat_388f88
f 411 404 405 412
usemtl mat_1d4f4b
f 412 405 406 413
usemtl mat_388f88
f 413 406 407 414
usemtl mat_1d4f4b
f 414 407 415 416
f 418 417 409 419
usemtl mat_43b5ab
f 419 409 410 420
usemtl mat_388f88
f 420 410 411 421
usemtl mat_43b5ab
f 421 411 412 422
usemtl mat_1d4f4b
f 422 412 413 423
usemtl mat_338780
f 423 413 414 424
usemtl mat_1d4f4b
f 424 414 416 425
f 427 426 418 428
usemtl mat_43b5ab
f 428 418 419 429
usemtl mat_388f88
f 429 419 420 430
usemtl mat_43b5ab
f 430 420 421 431
usemtl mat_1d4f4b
f 431 421 422 432
f 433 423 424 434
usemtl mat_388f88
f 434 424 425 435
usemtl mat_1d4f4b
f 435 425 436 437
f 439 438 427 440
usemtl mat_43b5ab
f 440 427 428 441
usemtl mat_388f88
f 441 428 429 442
usemtl mat_43b5ab
f 442 429 430 443
usemtl mat_1d4f4b
f 443 430 431 444
f 445 434 435 446
f 446 435 437 447
f 449 448 439 450
usemtl mat_43b5ab
f 450 439 440 451
usemtl mat_388f88
f 451 440 441 452
usemtl mat_43b5ab
f 452 441 442 453
usemtl mat_1d4f4b
f 453 442 443 454
f 456 455 449 457
usemtl mat_43b5ab
f 457 449 450 458
usemtl mat_388f88
f 458 450 451 459
usemtl mat_43b5ab
f 459 451 452 460
usemtl mat_1d4f4b
f 460 452 453 461
f 463 462 456 464
usemtl mat_43b5ab
f 464 456 457 465
usemtl mat_388f88
f 465 457 458 466
usemtl mat_43b5ab
f 466 458 459 467
usemtl mat_1d4f4b
f 467 459 460 468
f 470 469 463 471
usemtl mat_43b5ab
f 471 463 464 472
usemtl mat_388f88
f 472 464 465 473
usemtl mat_43b5ab
f 473 465 466 474
usemtl mat_1d4f4b
f 474 466 467 475
f 476 470 471 477
usemtl mat_388f88
f 477 471 472 478
usemtl mat_43b5ab
f 478 472 473 479
usemtl mat_1d4f4b
f 479 473 474 480
f 481 476 477 482
f 482 477 478 483
f 483 478 479 484
usemtl mat_5c4e2b
f 486 485 487 488
f 488 487 489 490
f 490 489 491 492
f 492 491 493 494
f 496 495 497 498
f 498 497 499 500
f 500 499 486 501
usemtl mat_7d6027
f 501 486 488 502
usemtl mat_5e4520
f 502 488 490 503
f 503 490 492 504
usemtl mat_7d6027
f 504 492 494 505
usemtl mat_422f12
f 505 494 506 507
usemtl mat_5c4e2b
f 509 508 510 511
f 511 510 496 512
usemtl mat_7d6027
f 512 496 498 513
usemtl mat_5e4520
f 513 498 500 514
usemtl mat_7d6027
f 514 500 501 515
usemtl mat_422f12
f 515 501 502 516
f 516 502 503 517
f 517 503 504 518
f 518 504 505 519
usemtl mat_5c4e2b
f 521 520 509 522
usemtl mat_828282
f 522 509 511 523
usemtl mat_5e4520
f 523 511 512 524
usemtl mat_422f12
f 524 512 513 525
f 525 513 514 526
f 526 514 515 527
f 528 517 518 529
usemtl mat_5c4e2b
f 531 530 521 532
usemtl mat_828282
f 532 521 522 533
usemtl mat_949494
f 533 522 523 534
usemtl mat_828282
f 534 523 524 535
usemtl mat_422f12
f 537 536 528 538
usemtl mat_5c4e2b
f 540 539 531 541
usemtl mat_828282
f 541 531 532 542
usemtl mat_949494
f 542 532 533 543
usemtl mat_828282
f 543 533 534 544
usemtl mat_422f12
f 546 545 537 547
usemtl mat_5c4e2b
f 548 540 541 549
usemtl mat_5e4520
f 549 541 542 550
usemtl mat_828282
f 550 542 543 551
usemtl mat_422f12
f 553 552 546 554
usemtl mat_5c4e2b
f 556 555 548 557
usemtl mat_7d6027
f 557 548 549 558
usemtl mat_422f12
f 558 549 550 559
f 561 560 553 562
usemtl mat_5c4e2b
f 563 556 557 564
usemtl mat_5e4520
f 564 557 558 565
usemtl mat_422f12
f 565 558 559 566
f 568 567 561 569
usemtl mat_5c4e2b
f 570 563 564 571
usemtl mat_7d6027
f 571 564 565 572
usemtl mat_422f12
f 572 565 566 573
f 575 574 568 576
usemtl mat_5c4e2b
f 578 577 570 579
usemtl mat_7d6027
f 579 570 571 580
usemtl mat_422f12
f 580 571 572 581
f 583 582 575 584
usemtl mat_5c4e2b
f 585 578 579 586
usemtl mat_5e4520
f 586 579 580 587
usemtl mat_422f12
f 587 580 581 588
f 590 589 583 591
usemtl mat_5c4e2b
f 592 585 586 593
usemtl mat_5e4520
f 593 586 587 594
usemtl mat_422f12
f 594 587 588 595
f 595 588 590 596
usemtl mat_5c4e2b
f 597 592 593 598
usemtl mat_7d6027
f 598 593 594 599
usemtl mat_422f12
f 599 594 595 600
f 601 598 599 602
usemtl mat_949494
f 604 603 605 606
usemtl mat_545454
f 606 605 607 608
usemtl mat_949494
f 610 609 604 611
usemtl mat_828282
f 611 604 606 612
usemtl mat_949494
f 612 606 608 613
usemtl mat_545454
f 613 608 614 615
usemtl mat_828282
f 616 610 611 617
usemtl mat_949494
f 617 611 612 618
usemtl mat_545454
f 618 612 613 619
usemtl mat_7d6027
f 621 620 616 622
usemtl mat_422f12
f 622 616 617 623
usemtl mat_545454
f 623 617 618 624
usemtl mat_7d6027
f 626 625 621 627
usemtl mat_422f12
f 627 621 622 628
usemtl mat_7d6027
f 630 629 626 631
usemtl mat_422f12
f 631 626 627 632
usemtl mat_7d6027
f 634 633 630 635
usemtl mat_422f12
f 635 630 631 636
usemtl mat_7d6027
f 638 637 634 639
usemtl mat_422f12
f 639 634 635 640
usemtl mat_828282
f 642 641 643 644
usemtl mat_422f12
f 644 643 645 646
usemtl mat_7d6027
f 646 645 638 647
usemtl mat_422f12
f 647 638 639 648
usemtl mat_b0b0b0
f 649 642 644 650
usemtl mat_7d6027
f 650 644 646 651
usemtl mat_422f12
f 651 646 647 652
usemtl mat_828282
f 654 653 649 655
usemtl mat_b0b0b0
f 655 649 650 656
f 656 650 651 657
usemtl mat_828282
f 657 651 652 658
usemtl mat_545454
f 658 652 659 660
usemtl mat_b0b0b0
f 661 654 655 662
usemtl mat_828282
f 662 655 656 663
usemtl mat_545454
f 663 656 657 664
f 664 657 658 665
f 666 661 662 667
f 667 662 663 668
